<svg width="134" height="45" viewBox="0 0 134 45" fill="none" xmlns="http://www.w3.org/2000/svg">
    <path
        d="M13.0884 28.0649C12.4728 28.0252 11.8473 27.9954 11.2119 27.9756C10.5765 27.9557 9.94108 27.9458 9.30566 27.9458C8.94824 27.9458 8.57096 27.9557 8.17383 27.9756C7.79655 27.9954 7.41927 28.0054 7.04199 28.0054L6.92285 38.6387C8.55111 38.599 10.1297 38.5195 11.6587 38.4004C13.2075 38.2812 14.8457 38.0926 16.5732 37.8345V44.0596C15.4613 44.0199 14.3791 43.9901 13.3267 43.9702C12.2941 43.9504 11.2616 43.9404 10.229 43.9404C8.68018 43.9404 7.1512 43.9603 5.64209 44C4.13298 44.0596 2.57422 44.139 0.96582 44.2383C1.14453 40.5449 1.28353 36.8913 1.38281 33.2773C1.50195 29.6436 1.56152 25.98 1.56152 22.2866C1.56152 18.7521 1.51188 15.2474 1.4126 11.7725C1.33317 8.27767 1.18424 4.76302 0.96582 1.22852C3.30892 1.40723 5.54281 1.49658 7.66748 1.49658C9.01774 1.49658 10.3581 1.4668 11.6885 1.40723C13.0387 1.3278 14.4784 1.22852 16.0073 1.10938V7.95996C14.7762 7.74154 13.555 7.57275 12.3438 7.45361C11.1523 7.33447 9.96094 7.2749 8.76953 7.2749H7.60791C7.40934 9.757 7.27035 12.2292 7.19092 14.6914C7.13135 17.1536 7.08171 19.6258 7.04199 22.1079C7.55827 22.1476 8.07454 22.1675 8.59082 22.1675C9.12695 22.1675 9.67301 22.1675 10.229 22.1675C10.6857 22.1675 11.1523 22.1675 11.6289 22.1675C12.1055 22.1675 12.592 22.1476 13.0884 22.1079V28.0649ZM25.9556 43.1958C25.4393 43.2157 24.8535 43.2554 24.1982 43.3149C23.6423 43.3547 22.987 43.4043 22.2324 43.4639C21.4977 43.5234 20.6836 43.6029 19.79 43.7021C19.6113 36.9707 19.4227 31.0236 19.2241 25.8608C19.0256 20.6782 18.8468 16.2998 18.688 12.7256C18.4894 8.55566 18.2909 4.9318 18.0923 1.854L25.8364 1.49658C25.8364 5.98421 25.8364 10.0251 25.8364 13.6191C25.8364 17.1934 25.8364 20.3804 25.8364 23.1802C25.8563 25.9601 25.8662 28.3926 25.8662 30.4775C25.8861 32.5426 25.896 34.3198 25.896 35.8091C25.9159 39.284 25.9357 41.7463 25.9556 43.1958ZM46.6265 43.1958C44.7798 43.8312 43.092 44.2482 41.563 44.4468C40.0539 44.6453 38.8128 44.7446 37.8398 44.7446C36.6286 44.7446 35.5662 44.5063 34.6528 44.0298C33.7394 43.5532 32.9451 42.9178 32.27 42.1235C31.6147 41.3293 31.0687 40.4159 30.6318 39.3833C30.195 38.3309 29.8475 37.2288 29.5894 36.0771C29.3312 34.9255 29.1426 33.7638 29.0234 32.5923C28.9242 31.4009 28.8745 30.279 28.8745 29.2266C28.8745 26.6055 29.083 24.1929 29.5 21.9888C29.917 19.7648 30.5226 17.8486 31.3169 16.2402C32.1112 14.6318 33.0941 13.3809 34.2656 12.4873C35.4372 11.5739 36.7676 11.1172 38.2568 11.1172C39.488 11.1172 40.6099 11.425 41.6226 12.0405C42.6353 12.6561 43.499 13.5993 44.2139 14.8701C44.9287 16.141 45.4748 17.7593 45.8521 19.7251C46.2492 21.6711 46.4478 23.9844 46.4478 26.665C46.4478 27.4196 46.4279 28.1841 46.3882 28.9585C46.3683 29.7329 46.3187 30.5371 46.2393 31.3711L35.6953 32.771C35.7747 33.5057 35.8939 34.2007 36.0527 34.856C36.2314 35.5112 36.4598 36.097 36.7378 36.6133C37.0356 37.1097 37.3831 37.5068 37.7803 37.8047C38.1774 38.1025 38.6639 38.2515 39.2397 38.2515C40.312 38.2515 41.3843 38.1919 42.4565 38.0728C43.5288 37.9338 44.6507 37.7749 45.8223 37.5962L46.6265 43.1958ZM35.5166 27.7075L40.4609 26.7842V25.6523C40.4609 23.9645 40.3319 22.6639 40.0737 21.7505C39.8156 20.8172 39.5376 20.1322 39.2397 19.6953C38.8823 19.179 38.4753 18.8812 38.0186 18.8018C37.4427 18.8613 36.986 19.1294 36.6484 19.606C36.3109 20.0825 36.0527 20.6981 35.874 21.4526C35.7152 22.1873 35.6159 23.0213 35.5762 23.9546C35.5365 24.8879 35.5166 25.8311 35.5166 26.7842V27.7075ZM78.3477 3.79004C78.1888 5.39844 78.0498 6.96712 77.9307 8.49609C77.8115 10.0052 77.7023 11.5143 77.603 13.0234C78.3576 12.9837 79.1022 12.9539 79.8369 12.9341C80.5915 12.8944 81.356 12.8348 82.1304 12.7554L81.9219 18.8018C81.1673 18.762 80.3929 18.7422 79.5986 18.7422C78.8242 18.7422 78.0597 18.7422 77.3052 18.7422C77.1463 21.6016 77.0272 24.4014 76.9478 27.1416C76.8882 29.862 76.8584 32.6121 76.8584 35.3921C76.8584 36.8218 76.8683 38.2614 76.8882 39.7109C76.9279 41.1406 76.9676 42.5902 77.0073 44.0596L70.4546 44.1787C70.5936 39.9095 70.7127 35.6899 70.812 31.52C70.9113 27.3302 70.9609 23.1107 70.9609 18.8613C70.2064 18.901 69.4419 18.9408 68.6675 18.9805C67.8931 19.0003 67.1286 19.04 66.374 19.0996L66.6123 12.5767C67.3073 12.6759 68.0221 12.7554 68.7568 12.8149C69.4915 12.8745 70.2064 12.9242 70.9014 12.9639C70.9014 11.415 70.8815 9.896 70.8418 8.40674C70.8219 6.91748 70.7822 5.39844 70.7227 3.84961L78.3477 3.79004ZM101.312 26.9331C101.312 29.3556 101.203 31.4803 100.984 33.3071C100.766 35.134 100.448 36.7225 100.031 38.0728C99.6341 39.4032 99.1476 40.5151 98.5718 41.4087C98.0158 42.2824 97.3903 42.9873 96.6953 43.5234C96.0202 44.0596 95.2855 44.4368 94.4912 44.6553C93.6969 44.8737 92.8828 44.9829 92.0488 44.9829C91.2148 44.9829 90.4106 44.8936 89.6362 44.7148C88.8817 44.5361 88.1768 44.2085 87.5215 43.7319C86.8662 43.2554 86.2606 42.61 85.7046 41.7959C85.1685 40.9818 84.7118 39.9393 84.3345 38.6685C83.9572 37.3976 83.6593 35.8786 83.4409 34.1113C83.2424 32.3441 83.1431 30.269 83.1431 27.8862C83.1431 24.312 83.4012 21.3831 83.9175 19.0996C84.4536 16.8161 85.1486 15.019 86.0024 13.7085C86.8563 12.3781 87.8293 11.4647 88.9214 10.9683C90.0135 10.452 91.1354 10.1938 92.2871 10.1938C93.0218 10.1938 93.7565 10.2733 94.4912 10.4321C95.2458 10.5711 95.9507 10.859 96.606 11.2959C97.2811 11.7327 97.9066 12.3384 98.4824 13.1128C99.0583 13.8872 99.5547 14.8999 99.9717 16.1509C100.389 17.382 100.716 18.8812 100.955 20.6484C101.193 22.4157 101.312 24.5106 101.312 26.9331ZM94.9082 27.1714C94.9082 25.2651 94.8387 23.7064 94.6997 22.4951C94.5607 21.264 94.3721 20.291 94.1338 19.5762C93.8955 18.8613 93.6076 18.3748 93.27 18.1167C92.9325 17.8387 92.5651 17.6997 92.168 17.6997C91.7113 17.6997 91.3141 17.8983 90.9766 18.2954C90.639 18.6727 90.3511 19.2882 90.1128 20.1421C89.8944 20.9959 89.7256 22.098 89.6064 23.4482C89.4873 24.7786 89.4277 26.4069 89.4277 28.333C89.4277 30.279 89.4972 31.8973 89.6362 33.188C89.7951 34.4588 90.0036 35.4814 90.2617 36.2559C90.5397 37.0104 90.8574 37.5465 91.2148 37.8643C91.5921 38.182 91.9893 38.3408 92.4062 38.3408C93.2799 38.3408 93.9154 37.4373 94.3125 35.6304C94.7096 33.8234 94.9082 31.0037 94.9082 27.1714ZM122.668 25.0864C122.589 27.4692 122.509 29.7726 122.43 31.9966C122.39 32.9497 122.35 33.9326 122.311 34.9453C122.271 35.958 122.221 36.9508 122.162 37.9238C122.122 38.877 122.082 39.8003 122.042 40.6938C122.003 41.5675 121.963 42.342 121.923 43.0171L115.4 43.6426C115.559 41.0215 115.688 38.728 115.788 36.7622C115.887 34.7765 115.956 33.0788 115.996 31.6689C116.056 30.2393 116.095 29.0479 116.115 28.0947C116.135 27.1416 116.135 26.3771 116.115 25.8013C116.115 25.2254 116.105 24.7985 116.085 24.5205C116.085 24.2425 116.085 24.0638 116.085 23.9844C116.085 22.8724 116.036 21.9689 115.937 21.2739C115.857 20.5789 115.738 20.0329 115.579 19.6357C115.42 19.2386 115.222 18.9705 114.983 18.8315C114.765 18.6925 114.517 18.623 114.239 18.623C113.881 18.623 113.514 18.6925 113.137 18.8315C112.779 18.9507 112.452 19.2088 112.154 19.606C111.876 19.9832 111.647 20.5293 111.469 21.2441C111.29 21.959 111.201 22.9121 111.201 24.1035C111.201 26.3672 111.201 28.5812 111.201 30.7456C111.221 32.8901 111.25 34.8262 111.29 36.5537C111.31 38.5592 111.34 40.4754 111.379 42.3022L104.291 42.9575C104.449 40.8527 104.549 38.7975 104.588 36.792C104.648 34.7865 104.678 32.9795 104.678 31.3711C104.678 28.3529 104.608 25.3644 104.469 22.4058C104.35 19.4272 104.132 16.3395 103.814 13.1426C105.085 13.1029 106.127 13.0532 106.941 12.9937C107.756 12.9341 108.401 12.8646 108.877 12.7852C109.433 12.7057 109.86 12.6164 110.158 12.5171L110.218 16.1211C110.635 15.446 111.091 14.8105 111.588 14.2148C112.104 13.6191 112.64 13.1128 113.196 12.6958C113.752 12.259 114.328 11.9214 114.924 11.6831C115.539 11.425 116.165 11.2959 116.8 11.2959C117.515 11.2959 118.141 11.3555 118.677 11.4746C119.233 11.5739 119.709 11.7824 120.106 12.1001C120.523 12.3979 120.871 12.8249 121.149 13.3809C121.427 13.917 121.665 14.612 121.864 15.4658C122.221 14.9098 122.608 14.3836 123.025 13.8872C123.462 13.3709 123.929 12.9242 124.425 12.5469C124.942 12.1497 125.488 11.842 126.063 11.6235C126.639 11.4051 127.275 11.2959 127.97 11.2959C129.062 11.2959 129.985 11.425 130.74 11.6831C131.494 11.9412 132.1 12.4674 132.557 13.2617C133.033 14.0361 133.371 15.1481 133.569 16.5977C133.788 18.0273 133.897 19.9237 133.897 22.2866C133.897 25.6821 133.818 29.0876 133.659 32.5029C133.5 35.8984 133.331 39.4032 133.152 43.0171L126.629 43.6426C126.868 39.9889 127.027 36.9211 127.106 34.439C127.205 31.937 127.265 29.9215 127.285 28.3926C127.305 26.8636 127.305 25.7616 127.285 25.0864C127.265 24.3914 127.255 24.0042 127.255 23.9248C127.255 22.8327 127.195 21.9391 127.076 21.2441C126.977 20.5492 126.828 20.013 126.629 19.6357C126.451 19.2386 126.232 18.9705 125.974 18.8315C125.736 18.6925 125.468 18.623 125.17 18.623C124.991 18.623 124.793 18.6429 124.574 18.6826C124.356 18.7025 124.127 18.8018 123.889 18.9805C123.651 19.1393 123.413 19.3975 123.174 19.7549C122.956 20.1123 122.747 20.6087 122.549 21.2441C122.608 22.1377 122.638 22.932 122.638 23.627C122.658 24.3219 122.668 24.8084 122.668 25.0864Z"
        fill="#1C1C1E" />
    <path
        d="M66.4038 43.2554C65.6294 43.6128 64.8649 43.8809 64.1104 44.0596C63.3558 44.2581 62.6807 44.4071 62.085 44.5063C61.39 44.6056 60.7148 44.6652 60.0596 44.6851C59.3447 44.6851 58.5703 44.556 57.7363 44.2979C56.9222 44.0397 56.0981 43.6029 55.2642 42.9873C54.4302 42.3519 53.626 41.498 52.8516 40.4258C52.0771 39.3337 51.3921 37.9735 50.7964 36.3452C50.2007 34.6971 49.7241 32.7313 49.3667 30.4478C49.0093 28.1642 48.8306 25.5034 48.8306 22.4653C48.8306 19.4272 49.0391 16.7764 49.4561 14.5127C49.8929 12.249 50.4489 10.313 51.124 8.70459C51.819 7.07633 52.5934 5.74593 53.4473 4.71338C54.321 3.66097 55.2046 2.83691 56.0981 2.24121C56.9917 1.62565 57.8555 1.20866 58.6895 0.990234C59.5433 0.751953 60.278 0.632812 60.8936 0.632812C61.4694 0.652669 62.0353 0.71224 62.5913 0.811523C63.0679 0.910807 63.5643 1.05973 64.0806 1.2583C64.6167 1.45687 65.0833 1.73486 65.4805 2.09229L64.8848 8.0791C64.3288 7.80111 63.8026 7.60254 63.3062 7.4834C62.8296 7.3444 62.3729 7.2749 61.936 7.2749C61.1021 7.2749 60.3574 7.50326 59.7021 7.95996C59.0667 8.39681 58.5107 8.98258 58.0342 9.71729C57.5775 10.452 57.1803 11.286 56.8428 12.2192C56.5251 13.1525 56.2669 14.1056 56.0684 15.0786C55.5719 17.3621 55.2939 19.9634 55.2344 22.8823C55.2939 25.7814 55.5819 28.3628 56.0981 30.6265C56.3166 31.5994 56.5846 32.5526 56.9023 33.4858C57.2399 34.3993 57.647 35.2233 58.1235 35.958C58.6001 36.6729 59.1561 37.2487 59.7915 37.6855C60.4468 38.1224 61.2013 38.3408 62.0552 38.3408C62.9884 38.3408 64.0706 38.0132 65.3018 37.3579L66.4038 43.2554Z"
        fill="#FED700" />
</svg>